<svg width="128" height="128" viewBox="0 0 128 128" xmlns="http://www.w3.org/2000/svg">
  <defs>
    <!-- 渐变定义 -->
    <linearGradient id="bgGradient" x1="0%" y1="0%" x2="100%" y2="100%">
      <stop offset="0%" style="stop-color:#667eea;stop-opacity:1" />
      <stop offset="100%" style="stop-color:#764ba2;stop-opacity:1" />
    </linearGradient>
    
    <linearGradient id="tabGradient" x1="0%" y1="0%" x2="100%" y2="100%">
      <stop offset="0%" style="stop-color:#ffffff;stop-opacity:1" />
      <stop offset="100%" style="stop-color:#f8fafc;stop-opacity:1" />
    </linearGradient>
    
    <linearGradient id="accentGradient" x1="0%" y1="0%" x2="100%" y2="100%">
      <stop offset="0%" style="stop-color:#10b981;stop-opacity:1" />
      <stop offset="100%" style="stop-color:#059669;stop-opacity:1" />
    </linearGradient>
    
    <linearGradient id="shadowGradient" x1="0%" y1="0%" x2="100%" y2="100%">
      <stop offset="0%" style="stop-color:#000000;stop-opacity:0.1" />
      <stop offset="100%" style="stop-color:#000000;stop-opacity:0.05" />
    </linearGradient>
  </defs>
  
  <!-- 背景圆形 -->
  <circle cx="64" cy="64" r="60" fill="url(#bgGradient)" stroke="#ffffff" stroke-width="2"/>
  
  <!-- 阴影效果 -->
  <circle cx="64" cy="64" r="58" fill="url(#shadowGradient)" opacity="0.3"/>
  
  <!-- 主要标签页组 -->
  <g transform="translate(20, 25)">
    <!-- 标签页1 (主标签) -->
    <rect x="0" y="0" width="40" height="25" rx="4" fill="url(#tabGradient)" stroke="#e2e8f0" stroke-width="1"/>
    <rect x="0" y="0" width="40" height="6" rx="4" fill="#3b82f6" opacity="0.8"/>
    <circle cx="8" cy="3" r="1.5" fill="#ffffff"/>
    <circle cx="12" cy="3" r="1.5" fill="#ffffff"/>
    <circle cx="16" cy="3" r="1.5" fill="#ffffff"/>
    
    <!-- 标签页2 -->
    <rect x="5" y="5" width="35" height="20" rx="3" fill="url(#tabGradient)" stroke="#e2e8f0" stroke-width="1"/>
    <rect x="5" y="5" width="35" height="5" rx="3" fill="#10b981" opacity="0.7"/>
    <circle cx="10" cy="7.5" r="1" fill="#ffffff"/>
    <circle cx="14" cy="7.5" r="1" fill="#ffffff"/>
    
    <!-- 标签页3 -->
    <rect x="10" y="10" width="30" height="15" rx="2" fill="url(#tabGradient)" stroke="#e2e8f0" stroke-width="1"/>
    <rect x="10" y="10" width="30" height="4" rx="2" fill="#f59e0b" opacity="0.7"/>
    <circle cx="13" cy="12" r="0.8" fill="#ffffff"/>
    <circle cx="16" cy="12" r="0.8" fill="#ffffff"/>
  </g>
  
  <!-- 智能分组指示器 -->
  <g transform="translate(70, 35)">
    <!-- 分组图标 -->
    <rect x="0" y="0" width="25" height="20" rx="3" fill="url(#accentGradient)" opacity="0.9"/>
    <path d="M5 5 L20 5 M5 10 L20 10 M5 15 L15 15" stroke="#ffffff" stroke-width="1.5" stroke-linecap="round"/>
    <circle cx="22" cy="8" r="2" fill="#ffffff"/>
    <circle cx="22" cy="13" r="2" fill="#ffffff"/>
  </g>
  
  <!-- 内存优化指示器 -->
  <g transform="translate(75, 60)">
    <!-- 休眠/唤醒图标 -->
    <circle cx="0" cy="0" r="12" fill="#f3f4f6" stroke="#9ca3af" stroke-width="1"/>
    <path d="M-6 -2 L6 -2 M-6 2 L6 2 M-6 6 L4 6" stroke="#6b7280" stroke-width="1.5" stroke-linecap="round"/>
    <circle cx="8" cy="-4" r="1.5" fill="#10b981"/>
    <circle cx="8" cy="4" r="1.5" fill="#ef4444"/>
  </g>
  
  <!-- 工作区快照指示器 -->
  <g transform="translate(25, 70)">
    <!-- 快照图标 -->
    <rect x="0" y="0" width="20" height="15" rx="2" fill="#fef3c7" stroke="#fbbf24" stroke-width="1"/>
    <path d="M5 5 L15 5 M5 8 L15 8 M5 11 L12 11" stroke="#92400e" stroke-width="1" stroke-linecap="round"/>
    <circle cx="17" cy="3" r="1.5" fill="#f59e0b"/>
  </g>
  
  <!-- 智能连接线 -->
  <g stroke="#ffffff" stroke-width="1.5" opacity="0.6">
    <!-- 标签页之间的连接 -->
    <path d="M60 50 Q70 45 80 45" fill="none"/>
    <path d="M65 60 Q75 65 85 65" fill="none"/>
    
    <!-- 分组连接 -->
    <path d="M45 35 Q55 30 70 35" fill="none"/>
    <path d="M50 60 Q60 55 75 60" fill="none"/>
  </g>
  
  <!-- 中心智能核心 -->
  <g transform="translate(64, 64)">
    <circle cx="0" cy="0" r="8" fill="#ffffff" opacity="0.9"/>
    <circle cx="0" cy="0" r="6" fill="url(#accentGradient)"/>
    <path d="M-3 -3 L3 3 M-3 3 L3 -3" stroke="#ffffff" stroke-width="1.5" stroke-linecap="round"/>
    <circle cx="0" cy="0" r="2" fill="#ffffff"/>
  </g>
  
  <!-- 装饰性元素 -->
  <g opacity="0.3">
    <circle cx="20" cy="20" r="2" fill="#ffffff"/>
    <circle cx="108" cy="25" r="1.5" fill="#ffffff"/>
    <circle cx="110" cy="100" r="2" fill="#ffffff"/>
    <circle cx="25" cy="105" r="1.5" fill="#ffffff"/>
  </g>
</svg>